<svg width="676" height="551" viewBox="0 0 676 551" fill="none" xmlns="http://www.w3.org/2000/svg">
<path fill-rule="evenodd" clip-rule="evenodd" d="M21.75 20.75V31.125H20.4531C18.0455 31.125 15.7364 32.0814 14.0339 33.7839C12.3314 35.4864 11.375 37.7955 11.375 40.2031V68.7344C11.375 73.7455 15.442 77.8125 20.4531 77.8125H64.5469C66.9544 77.8125 69.2634 76.8559 70.9659 75.1534C72.6684 73.4509 73.625 71.1419 73.625 68.7344V40.2031C73.625 37.7955 72.6684 35.4864 70.9659 33.7839C69.2634 32.0814 66.9544 31.125 64.5469 31.125H63.25V20.75C63.25 15.2467 61.064 9.96892 57.1723 6.07752C53.2812 2.18615 48.0033 0 42.5 0C36.9967 0 31.7189 2.18615 27.8275 6.07752C23.9362 9.96892 21.75 15.2467 21.75 20.75ZM55.4688 31.125V20.75C55.4688 17.3105 54.1024 14.0118 51.6703 11.5797C49.2382 9.14758 45.9395 7.78125 42.5 7.78125C39.0605 7.78125 35.7618 9.14758 33.3297 11.5797C30.8976 14.0118 29.5312 17.3105 29.5312 20.75V31.125H55.4688ZM63.25 38.9062H64.5469C64.8908 38.9062 65.2207 39.0429 65.464 39.2861C65.7073 39.5293 65.8438 39.8592 65.8438 40.2031V68.7344C65.8438 69.0783 65.7073 69.4082 65.464 69.6515C65.2207 69.8948 64.8908 70.0312 64.5469 70.0312H20.4531C20.1092 70.0312 19.7793 69.8948 19.5361 69.6515C19.2929 69.4082 19.1562 69.0783 19.1562 68.7344V40.2031C19.1562 39.8592 19.2929 39.5293 19.5361 39.2861C19.7793 39.0429 20.1092 38.9062 20.4531 38.9062H63.25Z" fill="#F5F7FA"/>
<g opacity="0.2">
<ellipse cx="29.2743" cy="105.854" rx="7.27427" ry="8.30097" fill="#BDC8DA"/>
<ellipse cx="55.9466" cy="105.854" rx="7.27427" ry="8.30097" fill="#BDC8DA"/>
<ellipse cx="82.619" cy="105.854" rx="7.27427" ry="8.30097" fill="#BDC8DA"/>
</g>
<line x1="1" y1="125.582" x2="561" y2="125.582" stroke="#BDC8DA"/>
<line x1="1" y1="162.098" x2="561" y2="162.098" stroke="#BDC8DA"/>
<path d="M561 105C561 93.9543 552.046 85 541 85H21C9.95431 85 1 93.9543 1 105V465" stroke="#BDC8DA"/>
<rect x="152" y="208" width="89" height="10" rx="5" fill="#EDF0F5"/>
<rect x="152" y="221" width="70" height="10" rx="5" fill="#EDF0F5"/>
<path d="M261.696 220.908V222.024H256.14L255.9 221.28C256.236 220.92 256.484 220.564 256.644 220.212C256.804 219.852 256.884 219.408 256.884 218.88C256.884 218.72 256.864 218.552 256.824 218.376H255.504V217.428H256.524C256.356 216.924 256.272 216.436 256.272 215.964C256.272 215.428 256.388 214.964 256.62 214.572C256.852 214.18 257.172 213.88 257.58 213.672C257.988 213.456 258.46 213.348 258.996 213.348C259.852 213.348 260.5 213.588 260.94 214.068C261.38 214.548 261.608 215.16 261.624 215.904H260.376C260.376 215.472 260.264 215.132 260.04 214.884C259.816 214.628 259.468 214.5 258.996 214.5C258.564 214.5 258.216 214.624 257.952 214.872C257.696 215.12 257.568 215.508 257.568 216.036C257.568 216.268 257.592 216.492 257.64 216.708C257.688 216.924 257.756 217.164 257.844 217.428H260.172V218.376H258.12C258.16 218.56 258.18 218.732 258.18 218.892C258.18 219.668 257.912 220.34 257.376 220.908H261.696ZM269.022 214.308L265.686 222H264.306L267.678 214.452H263.238V213.288H269.022V214.308ZM270.193 217.512C270.193 216.128 270.425 215.048 270.889 214.272C271.361 213.488 272.169 213.096 273.313 213.096C274.457 213.096 275.261 213.488 275.725 214.272C276.197 215.048 276.433 216.128 276.433 217.512C276.433 218.912 276.197 220.008 275.725 220.8C275.261 221.584 274.457 221.976 273.313 221.976C272.169 221.976 271.361 221.584 270.889 220.8C270.425 220.008 270.193 218.912 270.193 217.512ZM275.089 217.512C275.089 216.864 275.045 216.316 274.957 215.868C274.877 215.42 274.709 215.056 274.453 214.776C274.197 214.488 273.817 214.344 273.313 214.344C272.809 214.344 272.429 214.488 272.173 214.776C271.917 215.056 271.745 215.42 271.657 215.868C271.577 216.316 271.537 216.864 271.537 217.512C271.537 218.184 271.577 218.748 271.657 219.204C271.737 219.66 271.905 220.028 272.161 220.308C272.425 220.588 272.809 220.728 273.313 220.728C273.817 220.728 274.197 220.588 274.453 220.308C274.717 220.028 274.889 219.66 274.969 219.204C275.049 218.748 275.089 218.184 275.089 217.512ZM277.88 217.512C277.88 216.128 278.112 215.048 278.576 214.272C279.048 213.488 279.856 213.096 281 213.096C282.144 213.096 282.948 213.488 283.412 214.272C283.884 215.048 284.12 216.128 284.12 217.512C284.12 218.912 283.884 220.008 283.412 220.8C282.948 221.584 282.144 221.976 281 221.976C279.856 221.976 279.048 221.584 278.576 220.8C278.112 220.008 277.88 218.912 277.88 217.512ZM282.776 217.512C282.776 216.864 282.732 216.316 282.644 215.868C282.564 215.42 282.396 215.056 282.14 214.776C281.884 214.488 281.504 214.344 281 214.344C280.496 214.344 280.116 214.488 279.86 214.776C279.604 215.056 279.432 215.42 279.344 215.868C279.264 216.316 279.224 216.864 279.224 217.512C279.224 218.184 279.264 218.748 279.344 219.204C279.424 219.66 279.592 220.028 279.848 220.308C280.112 220.588 280.496 220.728 281 220.728C281.504 220.728 281.884 220.588 282.14 220.308C282.404 220.028 282.576 219.66 282.656 219.204C282.736 218.748 282.776 218.184 282.776 217.512ZM286.3 222.084C286.052 222.084 285.844 222 285.676 221.832C285.508 221.664 285.424 221.456 285.424 221.208C285.424 220.96 285.508 220.752 285.676 220.584C285.844 220.416 286.052 220.332 286.3 220.332C286.54 220.332 286.744 220.416 286.912 220.584C287.08 220.752 287.164 220.96 287.164 221.208C287.164 221.456 287.08 221.664 286.912 221.832C286.744 222 286.54 222.084 286.3 222.084ZM288.462 217.512C288.462 216.128 288.694 215.048 289.158 214.272C289.63 213.488 290.438 213.096 291.582 213.096C292.726 213.096 293.53 213.488 293.994 214.272C294.466 215.048 294.702 216.128 294.702 217.512C294.702 218.912 294.466 220.008 293.994 220.8C293.53 221.584 292.726 221.976 291.582 221.976C290.438 221.976 289.63 221.584 289.158 220.8C288.694 220.008 288.462 218.912 288.462 217.512ZM293.358 217.512C293.358 216.864 293.314 216.316 293.226 215.868C293.146 215.42 292.978 215.056 292.722 214.776C292.466 214.488 292.086 214.344 291.582 214.344C291.078 214.344 290.698 214.488 290.442 214.776C290.186 215.056 290.014 215.42 289.926 215.868C289.846 216.316 289.806 216.864 289.806 217.512C289.806 218.184 289.846 218.748 289.926 219.204C290.006 219.66 290.174 220.028 290.43 220.308C290.694 220.588 291.078 220.728 291.582 220.728C292.086 220.728 292.466 220.588 292.722 220.308C292.986 220.028 293.158 219.66 293.238 219.204C293.318 218.748 293.358 218.184 293.358 217.512ZM296.15 217.512C296.15 216.128 296.382 215.048 296.846 214.272C297.318 213.488 298.126 213.096 299.27 213.096C300.414 213.096 301.218 213.488 301.682 214.272C302.154 215.048 302.39 216.128 302.39 217.512C302.39 218.912 302.154 220.008 301.682 220.8C301.218 221.584 300.414 221.976 299.27 221.976C298.126 221.976 297.318 221.584 296.846 220.8C296.382 220.008 296.15 218.912 296.15 217.512ZM301.046 217.512C301.046 216.864 301.002 216.316 300.914 215.868C300.834 215.42 300.666 215.056 300.41 214.776C300.154 214.488 299.774 214.344 299.27 214.344C298.766 214.344 298.386 214.488 298.13 214.776C297.874 215.056 297.702 215.42 297.614 215.868C297.534 216.316 297.494 216.864 297.494 217.512C297.494 218.184 297.534 218.748 297.614 219.204C297.694 219.66 297.862 220.028 298.118 220.308C298.382 220.588 298.766 220.728 299.27 220.728C299.774 220.728 300.154 220.588 300.41 220.308C300.674 220.028 300.846 219.66 300.926 219.204C301.006 218.748 301.046 218.184 301.046 217.512Z" fill="#414141"/>
<rect x="17" y="346" width="281" height="26" rx="4" fill="#ABD700"/>
<path d="M126.436 357.216C126.436 357.664 126.328 358.084 126.112 358.476C125.904 358.868 125.572 359.184 125.116 359.424C124.668 359.664 124.1 359.784 123.412 359.784H122.008V363H120.328V354.624H123.412C124.06 354.624 124.612 354.736 125.068 354.96C125.524 355.184 125.864 355.492 126.088 355.884C126.32 356.276 126.436 356.72 126.436 357.216ZM123.34 358.428C123.804 358.428 124.148 358.324 124.372 358.116C124.596 357.9 124.708 357.6 124.708 357.216C124.708 356.4 124.252 355.992 123.34 355.992H122.008V358.428H123.34ZM127.197 359.652C127.197 358.98 127.329 358.384 127.593 357.864C127.865 357.344 128.229 356.944 128.685 356.664C129.149 356.384 129.665 356.244 130.233 356.244C130.729 356.244 131.161 356.344 131.529 356.544C131.905 356.744 132.205 356.996 132.429 357.3V356.352H134.121V363H132.429V362.028C132.213 362.34 131.913 362.6 131.529 362.808C131.153 363.008 130.717 363.108 130.221 363.108C129.661 363.108 129.149 362.964 128.685 362.676C128.229 362.388 127.865 361.984 127.593 361.464C127.329 360.936 127.197 360.332 127.197 359.652ZM132.429 359.676C132.429 359.268 132.349 358.92 132.189 358.632C132.029 358.336 131.813 358.112 131.541 357.96C131.269 357.8 130.977 357.72 130.665 357.72C130.353 357.72 130.065 357.796 129.801 357.948C129.537 358.1 129.321 358.324 129.153 358.62C128.993 358.908 128.913 359.252 128.913 359.652C128.913 360.052 128.993 360.404 129.153 360.708C129.321 361.004 129.537 361.232 129.801 361.392C130.073 361.552 130.361 361.632 130.665 361.632C130.977 361.632 131.269 361.556 131.541 361.404C131.813 361.244 132.029 361.02 132.189 360.732C132.349 360.436 132.429 360.084 132.429 359.676ZM142.122 356.352L138.006 366.144H136.218L137.658 362.832L134.994 356.352H136.878L138.594 360.996L140.334 356.352H142.122ZM149.571 356.256C150.363 356.256 151.003 356.508 151.491 357.012C151.979 357.508 152.223 358.204 152.223 359.1V363H150.543V359.328C150.543 358.8 150.411 358.396 150.147 358.116C149.883 357.828 149.523 357.684 149.067 357.684C148.603 357.684 148.235 357.828 147.963 358.116C147.699 358.396 147.567 358.8 147.567 359.328V363H145.887V356.352H147.567V357.18C147.791 356.892 148.075 356.668 148.419 356.508C148.771 356.34 149.155 356.256 149.571 356.256ZM156.772 363.108C156.132 363.108 155.556 362.968 155.044 362.688C154.532 362.4 154.128 361.996 153.832 361.476C153.544 360.956 153.4 360.356 153.4 359.676C153.4 358.996 153.548 358.396 153.844 357.876C154.148 357.356 154.56 356.956 155.08 356.676C155.6 356.388 156.18 356.244 156.82 356.244C157.46 356.244 158.04 356.388 158.56 356.676C159.08 356.956 159.488 357.356 159.784 357.876C160.088 358.396 160.24 358.996 160.24 359.676C160.24 360.356 160.084 360.956 159.772 361.476C159.468 361.996 159.052 362.4 158.524 362.688C158.004 362.968 157.42 363.108 156.772 363.108ZM156.772 361.644C157.076 361.644 157.36 361.572 157.624 361.428C157.896 361.276 158.112 361.052 158.272 360.756C158.432 360.46 158.512 360.1 158.512 359.676C158.512 359.044 158.344 358.56 158.008 358.224C157.68 357.88 157.276 357.708 156.796 357.708C156.316 357.708 155.912 357.88 155.584 358.224C155.264 358.56 155.104 359.044 155.104 359.676C155.104 360.308 155.26 360.796 155.572 361.14C155.892 361.476 156.292 361.644 156.772 361.644ZM170.689 356.352L168.745 363H166.933L165.721 358.356L164.509 363H162.685L160.729 356.352H162.433L163.609 361.416L164.881 356.352H166.657L167.905 361.404L169.081 356.352H170.689Z" fill="white"/>
<path d="M188.5 353L187.443 354.057L191.628 358.25H182.5V359.75H191.628L187.443 363.943L188.5 365L194.5 359L188.5 353Z" fill="white"/>
<path d="M26.3496 388.092C26.4695 388.031 26.6017 388 26.736 388C26.8703 388 27.0029 388.031 27.1228 388.092L33.996 391.529C34.1984 391.632 34.3518 391.81 34.4226 392.026C34.4935 392.242 34.4759 392.477 34.374 392.68C34.2725 392.884 34.0944 393.039 33.8785 393.111C33.6627 393.184 33.4268 393.168 33.2228 393.066L26.736 389.819L20.2496 393.066C20.1482 393.118 20.0374 393.149 19.924 393.157C19.8106 393.166 19.6967 393.151 19.5888 393.115C19.4809 393.079 19.3813 393.022 19.2956 392.948C19.2099 392.873 19.1398 392.782 19.0896 392.68C18.9883 392.476 18.9722 392.24 19.0447 392.024C19.1172 391.808 19.2725 391.63 19.4764 391.529L26.3496 388.092Z" fill="#2F80ED"/>
<path d="M19.0039 404.322C19.0039 404.094 19.0945 403.876 19.2556 403.715C19.4167 403.553 19.6352 403.463 19.8631 403.463L26.7363 403.463C26.9641 403.463 27.1826 403.553 27.3437 403.715C27.5049 403.876 27.5954 404.094 27.5954 404.322C27.5954 404.55 27.5049 404.768 27.3437 404.93C27.1826 405.091 26.9641 405.181 26.7363 405.181L19.8631 405.181C19.6352 405.181 19.4167 405.091 19.2556 404.93C19.0945 404.768 19.0039 404.55 19.0039 404.322Z" fill="#2F80ED"/>
<path d="M27.5957 394.871C27.5957 394.643 27.5052 394.424 27.344 394.263C27.1829 394.102 26.9645 394.012 26.7366 394.012C26.5087 394.012 26.2903 394.102 26.1291 394.263C25.968 394.424 25.8774 394.643 25.8774 394.871L25.8774 400.885C25.8774 401.113 25.968 401.331 26.1291 401.492C26.2903 401.654 26.5087 401.744 26.7366 401.744C26.9645 401.744 27.1829 401.654 27.344 401.492C27.5052 401.331 27.5957 401.113 27.5957 400.885L27.5957 394.871Z" fill="#2F80ED"/>
<path d="M22.4407 394.012C22.6686 394.012 22.887 394.102 23.0481 394.263C23.2093 394.424 23.2998 394.643 23.2998 394.871L23.2998 400.885C23.2998 401.113 23.2093 401.331 23.0481 401.492C22.887 401.654 22.6686 401.744 22.4407 401.744C22.2128 401.744 21.9944 401.654 21.8332 401.492C21.6721 401.331 21.5815 401.113 21.5815 400.885L21.5815 394.871C21.5815 394.643 21.6721 394.424 21.8332 394.263C21.9944 394.102 22.2128 394.012 22.4407 394.012Z" fill="#2F80ED"/>
<path d="M31.8916 394.871C31.8916 394.643 31.8011 394.424 31.6399 394.263C31.4788 394.102 31.2604 394.012 31.0325 394.012C30.8046 394.012 30.5862 394.102 30.425 394.263C30.2639 394.424 30.1733 394.643 30.1733 394.871L30.1733 396.589C30.1733 396.817 30.2639 397.036 30.425 397.197C30.5862 397.358 30.8046 397.448 31.0325 397.448C31.2604 397.448 31.4788 397.358 31.6399 397.197C31.8011 397.036 31.8916 396.817 31.8916 396.589L31.8916 394.871Z" fill="#2F80ED"/>
<path d="M34.3015 409.476C34.1141 409.475 33.931 409.421 33.7773 409.322C33.5777 409.192 33.4416 408.994 33.3986 408.771C33.3555 408.548 33.4089 408.318 33.5476 408.132L36.0843 404.709L31.9392 404.709C31.7705 404.709 31.6052 404.666 31.4609 404.585C31.3166 404.503 31.1988 404.386 31.1212 404.247C31.0501 404.112 31.0188 403.961 31.0301 403.811C31.0414 403.661 31.0951 403.516 31.1858 403.391L34.7331 398.667C34.8737 398.483 35.087 398.358 35.3264 398.319C35.5658 398.281 35.8119 398.332 36.0107 398.462C36.2103 398.591 36.3464 398.789 36.3895 399.012C36.4325 399.235 36.3791 399.465 36.2405 399.651L33.7037 403.023L37.8488 403.023C38.0176 403.023 38.1829 403.066 38.3272 403.147C38.4714 403.229 38.5892 403.346 38.6669 403.485C38.738 403.621 38.7693 403.771 38.758 403.921C38.7467 404.071 38.6929 404.216 38.6022 404.341L35.0549 409.056C34.9768 409.179 34.867 409.282 34.7354 409.355C34.6038 409.428 34.4547 409.47 34.3015 409.476Z" fill="#2F80ED"/>
<path d="M151.709 392.934C152.127 392.414 152.411 391.714 152.336 391C151.724 391.03 150.978 391.402 150.546 391.923C150.157 392.369 149.814 393.098 149.904 393.782C150.59 393.842 151.276 393.44 151.709 392.934Z" fill="black"/>
<path d="M152.328 393.916C151.331 393.857 150.483 394.48 150.007 394.48C149.53 394.48 148.801 393.946 148.012 393.96C146.985 393.975 146.032 394.554 145.511 395.473C144.439 397.313 145.228 400.042 146.27 401.541C146.777 402.282 147.387 403.099 148.19 403.069C148.95 403.04 149.247 402.58 150.17 402.58C151.093 402.58 151.361 403.069 152.165 403.054C152.998 403.04 153.519 402.313 154.025 401.571C154.606 400.726 154.844 399.91 154.859 399.865C154.844 399.85 153.251 399.241 153.236 397.417C153.221 395.889 154.487 395.162 154.546 395.117C153.832 394.065 152.715 393.946 152.328 393.916Z" fill="black"/>
<path d="M161.013 391.848C163.181 391.848 164.69 393.336 164.69 395.503C164.69 397.678 163.15 399.174 160.959 399.174H158.558V402.976H156.824V391.848H161.013V391.848ZM158.558 397.724H160.548C162.058 397.724 162.917 396.915 162.917 395.511C162.917 394.107 162.058 393.305 160.556 393.305H158.558V397.724Z" fill="black"/>
<path d="M165.143 400.671C165.143 399.251 166.234 398.38 168.17 398.272L170.4 398.141V397.516C170.4 396.614 169.788 396.074 168.766 396.074C167.798 396.074 167.194 396.537 167.047 397.262H165.468C165.561 395.796 166.815 394.717 168.828 394.717C170.802 394.717 172.064 395.758 172.064 397.385V402.976H170.461V401.642H170.423C169.951 402.545 168.921 403.115 167.853 403.115C166.258 403.115 165.143 402.128 165.143 400.671ZM170.4 399.938V399.298L168.394 399.421C167.396 399.491 166.83 399.93 166.83 400.624C166.83 401.334 167.419 401.796 168.317 401.796C169.486 401.796 170.4 400.994 170.4 399.938Z" fill="black"/>
<path d="M173.578 405.961V404.611C173.701 404.642 173.98 404.642 174.12 404.642C174.894 404.642 175.312 404.318 175.567 403.485C175.567 403.47 175.714 402.992 175.714 402.984L172.772 394.863H174.584L176.644 401.465H176.674L178.734 394.863H180.499L177.449 403.4C176.752 405.367 175.947 405.999 174.259 405.999C174.12 405.999 173.701 405.984 173.578 405.961Z" fill="black"/>
<path d="M125.727 398.5C125.727 399.983 125.295 401.433 124.486 402.667C123.677 403.9 122.527 404.861 121.182 405.429C119.836 405.997 118.355 406.145 116.927 405.856C115.499 405.567 114.187 404.852 113.157 403.803C112.127 402.754 111.426 401.418 111.141 399.963C110.857 398.508 111.003 397 111.561 395.63C112.118 394.259 113.062 393.088 114.273 392.264C115.484 391.44 116.908 391 118.364 391C120.317 391 122.19 391.79 123.57 393.197C124.951 394.603 125.727 396.511 125.727 398.5Z" fill="#D9222A"/>
<path d="M128.249 391C126.422 390.998 124.659 391.691 123.307 392.943C123.041 393.189 122.792 393.454 122.563 393.737H124.051C124.255 393.989 124.442 394.254 124.613 394.53H122.002C121.845 394.786 121.703 395.051 121.577 395.324H125.036C125.155 395.583 125.259 395.848 125.348 396.118H121.266C121.18 396.378 121.108 396.643 121.051 396.912H125.563C125.842 398.231 125.768 399.601 125.349 400.881H121.266C121.354 401.152 121.458 401.417 121.577 401.675H125.036C124.91 401.948 124.768 402.213 124.611 402.469H122.002C122.172 402.745 122.359 403.01 122.563 403.263H124.05C123.822 403.545 123.573 403.811 123.306 404.056C124.363 405.031 125.674 405.672 127.081 405.902C128.488 406.133 129.931 405.942 131.234 405.354C132.536 404.765 133.644 403.805 134.421 402.588C135.198 401.371 135.612 399.951 135.613 398.5C135.613 394.358 132.316 391 128.249 391Z" fill="#EE9F2D"/>
<path d="M134.631 402.68C134.631 402.632 134.645 402.585 134.671 402.545C134.698 402.505 134.735 402.474 134.778 402.456C134.822 402.438 134.87 402.433 134.916 402.442C134.962 402.452 135.004 402.475 135.038 402.509C135.071 402.542 135.093 402.586 135.103 402.633C135.112 402.68 135.107 402.728 135.089 402.773C135.071 402.817 135.041 402.855 135.001 402.881C134.962 402.908 134.916 402.922 134.869 402.922C134.806 402.922 134.746 402.897 134.701 402.851C134.656 402.806 134.631 402.744 134.631 402.68ZM134.869 402.864C134.916 402.862 134.96 402.842 134.992 402.807C135.024 402.773 135.042 402.727 135.042 402.68C135.042 402.633 135.024 402.587 134.992 402.553C134.96 402.519 134.916 402.498 134.869 402.496C134.846 402.496 134.822 402.501 134.8 402.51C134.778 402.519 134.758 402.533 134.742 402.55C134.725 402.567 134.711 402.587 134.702 402.609C134.693 402.631 134.688 402.655 134.688 402.679C134.688 402.728 134.707 402.775 134.741 402.81C134.775 402.844 134.821 402.864 134.869 402.864L134.869 402.864ZM134.837 402.786H134.788V402.573H134.875C134.893 402.571 134.912 402.575 134.928 402.584C134.937 402.59 134.944 402.597 134.949 402.606C134.954 402.615 134.956 402.625 134.957 402.636C134.957 402.648 134.953 402.659 134.947 402.669C134.94 402.679 134.931 402.686 134.92 402.691L134.959 402.785H134.905L134.873 402.701H134.837L134.837 402.786ZM134.837 402.666H134.864C134.874 402.667 134.884 402.665 134.894 402.662C134.898 402.659 134.901 402.655 134.903 402.651C134.905 402.646 134.906 402.642 134.906 402.637C134.906 402.633 134.905 402.628 134.903 402.625C134.901 402.621 134.898 402.618 134.894 402.616C134.884 402.611 134.874 402.61 134.863 402.611H134.837V402.666ZM116.645 399.32C116.585 399.312 116.526 399.308 116.466 399.308C116.015 399.308 115.784 399.466 115.784 399.779C115.784 399.971 115.896 400.094 116.071 400.094C116.397 400.094 116.631 399.778 116.645 399.32H116.645ZM117.226 400.699H116.564L116.58 400.379C116.378 400.633 116.108 400.753 115.742 400.753C115.309 400.753 115.012 400.409 115.012 399.908C115.012 399.156 115.528 398.716 116.415 398.716C116.524 398.717 116.633 398.725 116.741 398.74C116.76 398.674 116.771 398.607 116.772 398.539C116.772 398.334 116.633 398.258 116.259 398.258C115.972 398.257 115.686 398.304 115.414 398.397L115.524 397.701C115.923 397.582 116.185 397.537 116.481 397.537C117.167 397.537 117.531 397.851 117.53 398.444C117.524 398.65 117.502 398.855 117.465 399.058C117.396 399.506 117.247 400.466 117.227 400.7L117.226 400.699ZM114.676 400.699H113.877L114.335 397.774L113.312 400.699H112.768L112.7 397.791L112.219 400.699H111.471L112.096 396.895H113.244L113.314 399.025L114.015 396.895H115.294L114.676 400.699ZM129.238 399.32C129.179 399.312 129.12 399.308 129.06 399.308C128.609 399.308 128.378 399.466 128.378 399.779C128.378 399.971 128.49 400.094 128.665 400.094C128.991 400.094 129.226 399.778 129.239 399.32H129.238ZM129.82 400.699H129.156L129.173 400.379C128.971 400.633 128.701 400.753 128.335 400.753C127.902 400.753 127.605 400.409 127.605 399.908C127.605 399.156 128.122 398.716 129.008 398.716C129.117 398.717 129.226 398.725 129.334 398.74C129.353 398.674 129.364 398.607 129.365 398.539C129.365 398.334 129.226 398.258 128.852 398.258C128.565 398.257 128.279 398.304 128.006 398.397C128.015 398.346 128.117 397.701 128.117 397.701C128.516 397.582 128.778 397.537 129.074 397.537C129.761 397.537 130.124 397.851 130.123 398.444C130.117 398.65 130.096 398.855 130.058 399.058C129.99 399.506 129.84 400.466 129.82 400.7V400.699ZM120.78 400.652C120.595 400.717 120.401 400.75 120.205 400.752C119.795 400.752 119.574 400.513 119.574 400.073C119.568 399.936 119.632 399.576 119.683 399.248C119.73 398.959 120.03 397.137 120.03 397.137H120.824L120.732 397.605H121.212L121.103 398.349H120.62C120.528 398.937 120.397 399.67 120.395 399.767C120.395 399.927 120.477 399.996 120.669 399.996C120.742 399.999 120.815 399.989 120.884 399.967L120.779 400.652H120.78ZM123.215 400.627C122.951 400.711 122.676 400.753 122.399 400.753C121.51 400.753 121.046 400.278 121.046 399.374C121.046 398.316 121.635 397.538 122.436 397.538C123.092 397.538 123.51 397.974 123.51 398.657C123.506 398.914 123.474 399.169 123.412 399.419H121.83C121.777 399.868 122.059 400.054 122.521 400.054C122.808 400.054 123.091 399.987 123.348 399.858L123.216 400.627H123.215ZM122.768 398.792C122.773 398.727 122.852 398.239 122.399 398.239C122.146 398.239 121.965 398.436 121.891 398.792H122.768ZM117.705 398.583C117.705 398.974 117.892 399.244 118.314 399.447C118.638 399.602 118.688 399.647 118.688 399.788C118.688 399.981 118.545 400.068 118.229 400.068C117.985 400.067 117.744 400.026 117.513 399.946C117.513 399.946 117.408 400.628 117.403 400.661C117.585 400.702 117.747 400.738 118.235 400.752C119.078 400.752 119.468 400.425 119.468 399.718C119.468 399.293 119.304 399.043 118.904 398.856C118.569 398.699 118.531 398.664 118.531 398.522C118.531 398.354 118.664 398.269 118.922 398.269C119.114 398.271 119.306 398.287 119.496 398.315L119.61 397.598C119.377 397.562 119.142 397.543 118.906 397.538C118.012 397.538 117.703 398.014 117.705 398.585V398.583ZM127.103 397.619C127.325 397.619 127.532 397.679 127.817 397.825L127.948 396.999C127.831 396.953 127.418 396.678 127.069 396.678C126.536 396.678 126.082 396.948 125.764 397.394C125.3 397.238 125.108 397.554 124.876 397.869L124.668 397.919C124.687 397.816 124.695 397.712 124.693 397.607H123.959C123.859 398.565 123.681 399.535 123.542 400.494L123.506 400.702H124.305C124.439 399.819 124.51 399.253 124.556 398.871L124.858 398.7C124.902 398.53 125.043 398.472 125.326 398.479C125.288 398.688 125.269 398.901 125.269 399.114C125.269 400.125 125.805 400.756 126.666 400.756C126.887 400.756 127.076 400.726 127.372 400.645L127.513 399.777C127.248 399.91 127.03 399.973 126.833 399.973C126.369 399.973 126.088 399.623 126.088 399.046C126.088 398.208 126.506 397.621 127.103 397.621" fill="black"/>
<path d="M114.906 400.474H114.107L114.565 397.549L113.543 400.474H112.998L112.929 397.566L112.448 400.474H111.701L112.326 396.672H113.474L113.507 399.026L114.283 396.67H115.524L114.906 400.472" fill="white"/>
<path d="M133.87 396.896L133.693 397.996C133.474 397.703 133.24 397.491 132.929 397.491C132.526 397.491 132.159 397.802 131.919 398.261C131.689 398.209 131.461 398.145 131.238 398.07V398.073C131.257 397.918 131.269 397.763 131.273 397.607H130.539C130.439 398.564 130.261 399.534 130.122 400.493L130.086 400.702H130.885C130.993 399.987 131.077 399.395 131.137 398.924C131.41 398.673 131.547 398.453 131.823 398.468C131.695 398.786 131.629 399.127 131.629 399.471C131.629 400.244 132.013 400.754 132.594 400.754C132.887 400.754 133.112 400.651 133.333 400.413L133.295 400.7H134.05L134.658 396.898L133.87 396.896ZM132.87 399.986C132.598 399.986 132.46 399.781 132.46 399.376C132.46 398.768 132.717 398.337 133.08 398.337C133.354 398.337 133.503 398.55 133.503 398.943C133.503 399.556 133.242 399.987 132.87 399.987L132.87 399.986Z" fill="black"/>
<path d="M116.875 399.096C116.816 399.088 116.756 399.084 116.697 399.084C116.245 399.084 116.014 399.242 116.014 399.555C116.014 399.747 116.126 399.87 116.302 399.87C116.628 399.87 116.862 399.554 116.876 399.096H116.875ZM117.457 400.475H116.794L116.809 400.155C116.608 400.408 116.338 400.529 115.972 400.529C115.538 400.529 115.241 400.184 115.241 399.684C115.241 398.932 115.758 398.491 116.645 398.491C116.754 398.493 116.863 398.501 116.971 398.515C116.99 398.45 117 398.382 117.002 398.314C117.002 398.109 116.863 398.033 116.489 398.033C116.202 398.033 115.916 398.08 115.643 398.172L115.754 397.477C116.152 397.357 116.415 397.313 116.711 397.313C117.397 397.313 117.761 397.627 117.76 398.219C117.754 398.425 117.732 398.63 117.695 398.833C117.626 399.281 117.477 400.242 117.457 400.475ZM128.178 396.774L128.048 397.6C127.763 397.454 127.555 397.394 127.333 397.394C126.737 397.394 126.318 397.982 126.318 398.819C126.318 399.397 126.6 399.746 127.064 399.746C127.261 399.746 127.478 399.683 127.743 399.551L127.603 400.417C127.308 400.501 127.118 400.529 126.896 400.529C126.035 400.529 125.499 399.899 125.499 398.887C125.499 397.527 126.24 396.576 127.3 396.576C127.649 396.576 128.061 396.727 128.178 396.774ZM129.468 399.097C129.409 399.089 129.349 399.085 129.29 399.085C128.838 399.085 128.608 399.243 128.608 399.556C128.608 399.748 128.72 399.871 128.895 399.871C129.22 399.871 129.455 399.555 129.469 399.097H129.468ZM130.05 400.476H129.387L129.403 400.156C129.2 400.409 128.931 400.53 128.565 400.53C128.132 400.53 127.834 400.185 127.834 399.685C127.834 398.933 128.351 398.492 129.238 398.492C129.347 398.493 129.456 398.501 129.564 398.516C129.583 398.451 129.593 398.383 129.595 398.315C129.595 398.11 129.456 398.034 129.083 398.034C128.795 398.034 128.509 398.081 128.236 398.173L128.347 397.478C128.745 397.358 129.008 397.314 129.304 397.314C129.99 397.314 130.354 397.628 130.353 398.22C130.347 398.426 130.325 398.631 130.288 398.834C130.219 399.281 130.07 400.242 130.05 400.476ZM121.01 400.427C120.825 400.492 120.631 400.526 120.436 400.528C120.026 400.528 119.804 400.289 119.804 399.848C119.799 399.711 119.863 399.352 119.914 399.024C119.96 398.735 120.26 396.913 120.26 396.913H121.055L120.962 397.381H121.37L121.26 398.125H120.85C120.758 398.714 120.626 399.446 120.625 399.543C120.625 399.703 120.707 399.772 120.898 399.772C120.971 399.775 121.044 399.765 121.114 399.743L121.01 400.427ZM123.446 400.403C123.182 400.487 122.907 400.529 122.631 400.528C121.742 400.528 121.277 400.054 121.277 399.149C121.277 398.092 121.867 397.313 122.668 397.313C123.324 397.313 123.741 397.749 123.741 398.433C123.738 398.689 123.705 398.945 123.644 399.194H122.061C122.007 399.642 122.289 399.83 122.752 399.83C123.038 399.83 123.321 399.763 123.578 399.634L123.446 400.404L123.446 400.403ZM123 398.568C123.004 398.504 123.084 398.016 122.631 398.016C122.377 398.016 122.197 398.213 122.123 398.568H123ZM117.937 398.359C117.937 398.751 118.123 399.02 118.546 399.223C118.869 399.378 118.919 399.424 118.919 399.565C118.919 399.758 118.777 399.845 118.46 399.845C118.217 399.844 117.975 399.802 117.744 399.723C117.744 399.723 117.639 400.405 117.635 400.437C117.816 400.479 117.978 400.514 118.466 400.529C119.31 400.529 119.699 400.201 119.699 399.495C119.699 399.07 119.535 398.82 119.136 398.633C118.801 398.476 118.762 398.441 118.762 398.296C118.762 398.129 118.895 398.043 119.153 398.043C119.346 398.046 119.537 398.062 119.728 398.09L119.841 397.373C119.608 397.337 119.373 397.317 119.137 397.312C118.243 397.312 117.934 397.788 117.936 398.359H117.937ZM134.281 400.475H133.524L133.562 400.187C133.342 400.426 133.118 400.529 132.824 400.529C132.242 400.529 131.858 400.018 131.858 399.245C131.858 398.216 132.454 397.348 133.159 397.348C133.469 397.348 133.704 397.477 133.922 397.77L134.1 396.671H134.888L134.279 400.473L134.281 400.475ZM133.101 399.76C133.474 399.76 133.735 399.33 133.735 398.716C133.735 398.323 133.586 398.11 133.312 398.11C132.949 398.11 132.691 398.541 132.691 399.149C132.691 399.555 132.829 399.76 133.101 399.76V399.76ZM130.77 397.382C130.67 398.339 130.492 399.309 130.353 400.267L130.316 400.476H131.116C131.403 398.584 131.471 398.215 131.92 398.262C131.991 397.874 132.125 397.535 132.223 397.364C131.888 397.293 131.701 397.486 131.456 397.852C131.476 397.693 131.511 397.54 131.504 397.383H130.77V397.382ZM124.189 397.383C124.089 398.34 123.911 399.31 123.772 400.268L123.736 400.477H124.538C124.825 398.585 124.892 398.216 125.341 398.263C125.413 397.876 125.546 397.536 125.644 397.365C125.31 397.294 125.122 397.487 124.878 397.853C124.897 397.695 124.932 397.541 124.926 397.384H124.189V397.383ZM134.632 400.235C134.632 400.171 134.657 400.11 134.701 400.064C134.746 400.019 134.806 399.993 134.869 399.993C134.9 399.993 134.931 399.999 134.96 400.011C134.989 400.023 135.015 400.041 135.037 400.064C135.059 400.086 135.077 400.113 135.089 400.142C135.101 400.171 135.107 400.203 135.107 400.234C135.104 400.297 135.078 400.356 135.034 400.399C134.989 400.443 134.93 400.467 134.869 400.467C134.808 400.467 134.749 400.443 134.704 400.399C134.66 400.356 134.634 400.297 134.631 400.234L134.632 400.235ZM134.87 400.419C134.918 400.419 134.963 400.4 134.997 400.365C135.031 400.331 135.05 400.284 135.05 400.235C135.05 400.187 135.031 400.14 134.997 400.105C134.963 400.071 134.918 400.051 134.87 400.051C134.845 400.05 134.821 400.054 134.798 400.062C134.775 400.071 134.754 400.085 134.736 400.102C134.718 400.119 134.704 400.14 134.695 400.163C134.685 400.185 134.68 400.21 134.68 400.235C134.68 400.26 134.685 400.285 134.695 400.308C134.704 400.331 134.718 400.351 134.736 400.368C134.754 400.386 134.775 400.399 134.798 400.408C134.821 400.416 134.845 400.42 134.87 400.419ZM134.837 400.341H134.789V400.126H134.877C134.895 400.124 134.914 400.128 134.93 400.136C134.938 400.142 134.945 400.15 134.95 400.16C134.955 400.169 134.957 400.179 134.957 400.19C134.957 400.202 134.954 400.213 134.947 400.223C134.941 400.233 134.931 400.24 134.921 400.244L134.959 400.338H134.905L134.873 400.255H134.837V400.338V400.341ZM134.837 400.221H134.864C134.874 400.222 134.885 400.22 134.894 400.217C134.898 400.214 134.901 400.21 134.903 400.206C134.905 400.201 134.906 400.197 134.906 400.192C134.906 400.188 134.905 400.183 134.903 400.18C134.901 400.176 134.898 400.173 134.894 400.17C134.884 400.167 134.874 400.165 134.863 400.167H134.837V400.221Z" fill="white"/>
<path d="M79.1742 391H99.7221C99.8763 391 100.029 391.031 100.171 391.091C100.314 391.152 100.443 391.24 100.552 391.351C100.661 391.463 100.748 391.595 100.807 391.741C100.866 391.886 100.896 392.042 100.896 392.2V404.8C100.896 405.118 100.773 405.423 100.552 405.649C100.332 405.874 100.034 406 99.7221 406H79.1742C78.8628 406 78.5641 405.874 78.3439 405.649C78.1237 405.423 78 405.118 78 404.8V392.2C78 391.882 78.1237 391.577 78.3439 391.351C78.5641 391.126 78.8628 391 79.1742 391Z" fill="#2557D6"/>
<path d="M78.0078 398.071H79.1068L79.3549 397.486H79.9097L80.1568 398.071H82.3191V397.624L82.5122 398.074H83.6347L83.8279 397.618V398.072H89.202L89.1994 397.112H89.3036C89.3761 397.115 89.3975 397.121 89.3975 397.239V398.073H92.1768V397.848C92.4011 397.966 92.7498 398.072 93.2086 398.072H94.3784L94.6288 397.486H95.1836L95.4281 398.072H97.6816V397.516L98.023 398.072H99.8286V394.396H98.0415V394.83L97.7914 394.396H95.9576V394.83L95.7287 394.396H93.2518C92.8373 394.396 92.4727 394.453 92.1783 394.611V394.396H90.469V394.611C90.2817 394.448 90.0263 394.396 89.7425 394.396H83.4965L83.077 395.346L82.6467 394.396H80.6799V394.83L80.4645 394.396H78.7869L78.0078 396.144V398.071ZM84.9454 397.541H84.2861L84.2837 395.478L83.3509 397.541H82.7861L81.8509 395.476V397.541H80.5425L80.2954 396.954H78.9562L78.7064 397.541H78.0078L79.1597 394.906H80.1154L81.2095 397.401V394.906H82.2592L83.1011 396.694L83.8745 394.906H84.9454V397.541ZM80.0755 396.407L79.6352 395.357L79.1975 396.407H80.0755ZM87.5697 397.541H85.4209V394.906H87.5697V395.455H86.0641V395.93H87.5336V396.47H86.0641V396.997H87.5697V397.541ZM90.5978 395.616C90.6007 395.766 90.5589 395.914 90.4779 396.039C90.397 396.164 90.2808 396.262 90.1446 396.318C90.2679 396.362 90.3776 396.439 90.4628 396.54C90.5538 396.671 90.5694 396.788 90.5694 397.024V397.541H89.9206L89.918 397.209C89.918 397.051 89.9336 396.823 89.8167 396.696C89.7225 396.603 89.5792 396.583 89.3471 396.583H88.6572V397.543H88.0141V394.906H89.4935C89.8223 394.906 90.0645 394.915 90.2723 395.032C90.4801 395.15 90.5978 395.322 90.5978 395.616ZM89.7847 396.006C89.6967 396.059 89.5919 396.06 89.4665 396.06H88.6851V395.476H89.4777C89.5898 395.476 89.7069 395.481 89.783 395.524C89.8663 395.562 89.918 395.644 89.918 395.757C89.918 395.869 89.8681 395.965 89.7847 396.007V396.006ZM91.6296 397.54H90.9733V394.906H91.6296V397.54ZM99.2488 397.54H98.3371L97.118 395.563V397.54H95.8079L95.5575 396.952H94.2213L93.9786 397.54H93.2256C92.9133 397.54 92.5173 397.473 92.293 397.249C92.0688 397.025 91.9493 396.722 91.9493 396.243C91.9493 395.853 92.0198 395.495 92.2963 395.212C92.5041 395.002 92.8299 394.905 93.2732 394.905H93.8958V395.471H93.2861C93.0513 395.471 92.9189 395.505 92.7912 395.627C92.6814 395.738 92.6063 395.948 92.6063 396.224C92.6063 396.506 92.6635 396.71 92.7824 396.843C92.8816 396.947 93.0615 396.979 93.2306 396.979H93.5198L94.4262 394.906H95.3902L96.4793 397.399V394.906H97.4606L98.5913 396.742V394.906H99.2503V397.541L99.2488 397.54ZM95.3388 396.406L94.8935 395.356L94.4509 396.406H95.3388ZM100.887 401.748C100.73 401.972 100.426 402.085 100.014 402.085H98.7727V401.521H100.01C100.133 401.521 100.218 401.505 100.27 401.456C100.294 401.435 100.313 401.408 100.326 401.378C100.34 401.349 100.346 401.317 100.346 401.284C100.348 401.251 100.341 401.218 100.327 401.187C100.314 401.157 100.293 401.131 100.268 401.11C100.221 401.069 100.153 401.051 100.041 401.051C99.437 401.031 98.6835 401.069 98.6835 400.235C98.6835 399.853 98.9315 399.451 99.6064 399.451H100.888V398.926H99.6974C99.3381 398.926 99.0771 399.011 98.8922 399.142V398.926H97.1309C96.8491 398.926 96.5186 398.995 96.3624 399.142V398.926H93.2186V399.142C92.9682 398.965 92.5461 398.926 92.3512 398.926H90.277V399.142C90.0792 398.954 89.6388 398.926 89.3705 398.926H87.0492L86.5179 399.489L86.0206 398.926H82.553V402.604H85.9552L86.5023 402.032L87.0181 402.604L89.1152 402.606V401.741H89.3206C89.5989 401.745 89.9271 401.734 90.2165 401.611V402.604H91.9464V401.645H92.03C92.1366 401.645 92.1475 401.65 92.1475 401.754V402.604H97.4019C97.7353 402.604 98.084 402.52 98.2772 402.368V402.604H99.9439C100.291 402.604 100.63 402.556 100.887 402.434V401.749L100.887 401.748ZM90.4678 400.333C90.4678 401.065 89.9101 401.217 89.3476 401.217H88.5451V402.102H87.2946L86.502 401.23L85.6801 402.102H83.1322V399.466H85.7189L86.5114 400.33L87.3298 399.466H89.3846C89.8954 399.466 90.469 399.605 90.469 400.335L90.4678 400.333ZM85.3549 401.548H83.7733V401.023H85.1855V400.485H83.7733V400.005H85.386L86.0905 400.774L85.3549 401.548ZM87.9031 401.849L86.9154 400.776L87.9031 399.736V401.849ZM89.3635 400.677H88.5325V400.006H89.3711C89.6033 400.006 89.7645 400.099 89.7645 400.329C89.7645 400.56 89.6107 400.677 89.3635 400.677ZM93.7185 399.466H95.8655V400.011H94.3593V400.491H95.8288V401.029H94.3593V401.554L95.8655 401.556V402.102H93.7185V399.466ZM92.893 400.876C93.0363 400.928 93.1534 401.021 93.2083 401.098C93.299 401.226 93.3122 401.346 93.3149 401.578V402.102H92.6691V401.772C92.6691 401.613 92.6846 401.379 92.5652 401.256C92.4709 401.161 92.3277 401.139 92.0931 401.139H91.4057V402.102H90.7599V399.466H92.2449C92.5707 399.466 92.8079 399.48 93.019 399.591C93.2218 399.711 93.3498 399.875 93.3498 400.176C93.3525 400.326 93.3103 400.474 93.2288 400.599C93.1473 400.725 93.0304 400.821 92.8936 400.877L92.893 400.876ZM92.5291 400.544C92.443 400.594 92.3365 400.598 92.2114 400.598H91.43V400.006H92.2226C92.3371 400.006 92.4519 400.009 92.5296 400.054C92.613 400.096 92.6629 400.178 92.6629 400.291C92.665 400.341 92.6538 400.392 92.6303 400.436C92.6069 400.481 92.5721 400.518 92.5296 400.544H92.5291ZM98.3359 400.712C98.4613 400.839 98.5282 400.999 98.5282 401.27C98.5282 401.837 98.1665 402.102 97.5178 402.102H96.265V401.537H97.5128C97.6349 401.537 97.7212 401.521 97.777 401.471C97.8009 401.45 97.82 401.423 97.8332 401.394C97.8463 401.364 97.853 401.332 97.853 401.299C97.8535 401.266 97.8467 401.233 97.8331 401.203C97.8195 401.173 97.7994 401.146 97.7744 401.125C97.7253 401.085 97.6569 401.067 97.5454 401.067C96.9439 401.047 96.1904 401.085 96.1904 400.251C96.1904 399.869 96.4358 399.466 97.1101 399.466H98.3999V400.027H97.2199C97.1024 400.027 97.0267 400.032 96.9621 400.075C96.8917 400.117 96.8656 400.181 96.8656 400.264C96.8651 400.308 96.8785 400.351 96.9039 400.387C96.9292 400.422 96.9651 400.448 97.0062 400.461C97.0875 400.485 97.172 400.495 97.2566 400.491L97.6029 400.5C97.952 400.508 98.1918 400.567 98.3368 400.712H98.3359ZM100.89 400.006H99.7173C99.5999 400.006 99.5224 400.01 99.4569 400.054C99.3915 400.097 99.363 400.16 99.363 400.243C99.362 400.287 99.3753 400.331 99.4007 400.366C99.4261 400.401 99.4623 400.427 99.5036 400.44C99.584 400.464 99.6677 400.474 99.7514 400.47L100.1 400.479C100.452 400.487 100.687 400.546 100.83 400.691C100.852 400.71 100.872 400.732 100.889 400.756V400.006H100.89Z" fill="white"/>
<path d="M46.173 391H66.7002C67.0113 391 67.3097 391.126 67.5297 391.351C67.7496 391.577 67.8732 391.882 67.8732 392.2V404.8C67.8732 405.118 67.7496 405.423 67.5297 405.649C67.3097 405.874 67.0113 406 66.7002 406H46.173C45.8619 406 45.5635 405.874 45.3436 405.649C45.1236 405.423 45 405.118 45 404.8V392.2C45 391.882 45.1236 391.577 45.3436 391.351C45.5635 391.126 45.8619 391 46.173 391V391Z" fill="#0E4595"/>
<path d="M53.5977 401.463L54.576 395.591H56.1407L55.1619 401.463H53.5977ZM60.8148 395.717C60.3652 395.55 59.8904 395.467 59.4125 395.471C57.8662 395.471 56.7771 396.267 56.768 397.409C56.7592 398.253 57.5454 398.723 58.1389 399.005C58.748 399.292 58.9527 399.476 58.9497 399.733C58.9459 400.127 58.4635 400.307 58.0137 400.307C57.3873 400.307 57.0548 400.217 56.541 399.998L56.3392 399.905L56.1196 401.219C56.485 401.384 57.1609 401.525 57.8627 401.533C59.5075 401.533 60.5752 400.745 60.5872 399.526C60.5931 398.858 60.1767 398.35 59.2735 397.931C58.7266 397.659 58.3917 397.478 58.3952 397.203C58.3952 396.959 58.6788 396.698 59.2914 396.698C59.6928 396.688 60.0917 396.765 60.4626 396.923L60.6028 396.99L60.8148 395.717V395.717ZM64.8413 395.591H63.6323C63.2575 395.591 62.9775 395.695 62.8129 396.078L60.489 401.459H62.1312C62.1312 401.459 62.3998 400.735 62.4608 400.576C62.6402 400.576 64.2364 400.579 64.4645 400.579C64.5114 400.784 64.6548 401.459 64.6548 401.459H66.107L64.8413 395.591ZM62.9229 399.382C63.0522 399.044 63.5464 397.74 63.5464 397.74C63.5373 397.756 63.6748 397.4 63.754 397.18L63.8595 397.686C63.8595 397.686 64.1592 399.088 64.2217 399.382H62.9229ZM52.2693 395.591L50.7374 399.596L50.5743 398.782C50.289 397.844 49.4013 396.827 48.4072 396.318L49.8089 401.453L51.4646 401.451L53.9279 395.59H52.2693" fill="white"/>
<path d="M49.3087 395.591H46.7867L46.7656 395.711C48.7286 396.197 50.0274 397.372 50.5667 398.783L50.018 396.083C49.9233 395.712 49.6485 395.601 49.3087 395.588" fill="#F2AE14"/>
<path d="M25.475 179.545L22.07 186.055V190H20.705V186.055L17.285 179.545H18.8L21.38 184.84L23.96 179.545H25.475ZM30.4998 190.135C29.7298 190.135 29.0298 189.96 28.3998 189.61C27.7798 189.26 27.2898 188.765 26.9298 188.125C26.5798 187.475 26.4048 186.725 26.4048 185.875C26.4048 185.035 26.5848 184.295 26.9448 183.655C27.3148 183.005 27.8148 182.51 28.4448 182.17C29.0748 181.82 29.7798 181.645 30.5598 181.645C31.3398 181.645 32.0448 181.82 32.6748 182.17C33.3048 182.51 33.7998 183 34.1598 183.64C34.5298 184.28 34.7148 185.025 34.7148 185.875C34.7148 186.725 34.5248 187.475 34.1448 188.125C33.7748 188.765 33.2698 189.26 32.6298 189.61C31.9898 189.96 31.2798 190.135 30.4998 190.135ZM30.4998 188.935C30.9898 188.935 31.4498 188.82 31.8798 188.59C32.3098 188.36 32.6548 188.015 32.9148 187.555C33.1848 187.095 33.3198 186.535 33.3198 185.875C33.3198 185.215 33.1898 184.655 32.9298 184.195C32.6698 183.735 32.3298 183.395 31.9098 183.175C31.4898 182.945 31.0348 182.83 30.5448 182.83C30.0448 182.83 29.5848 182.945 29.1648 183.175C28.7548 183.395 28.4248 183.735 28.1748 184.195C27.9248 184.655 27.7998 185.215 27.7998 185.875C27.7998 186.545 27.9198 187.11 28.1598 187.57C28.4098 188.03 28.7398 188.375 29.1498 188.605C29.5598 188.825 30.0098 188.935 30.4998 188.935ZM43.7995 181.78V190H42.4345V188.785C42.1745 189.205 41.8095 189.535 41.3395 189.775C40.8795 190.005 40.3695 190.12 39.8095 190.12C39.1695 190.12 38.5945 189.99 38.0845 189.73C37.5745 189.46 37.1695 189.06 36.8695 188.53C36.5795 188 36.4345 187.355 36.4345 186.595V181.78H37.7845V186.415C37.7845 187.225 37.9895 187.85 38.3995 188.29C38.8095 188.72 39.3695 188.935 40.0795 188.935C40.8095 188.935 41.3845 188.71 41.8045 188.26C42.2245 187.81 42.4345 187.155 42.4345 186.295V181.78H43.7995ZM47.4692 183.115C47.7092 182.645 48.0492 182.28 48.4892 182.02C48.9392 181.76 49.4842 181.63 50.1242 181.63V183.04H49.7642C48.2342 183.04 47.4692 183.87 47.4692 185.53V190H46.1042V181.78H47.4692V183.115ZM59.2839 190.135C58.5139 190.135 57.8139 189.96 57.1839 189.61C56.5639 189.26 56.0739 188.765 55.7139 188.125C55.3639 187.475 55.1889 186.725 55.1889 185.875C55.1889 185.035 55.3689 184.295 55.7289 183.655C56.0989 183.005 56.5989 182.51 57.2289 182.17C57.8589 181.82 58.5639 181.645 59.3439 181.645C60.1239 181.645 60.8289 181.82 61.4589 182.17C62.0889 182.51 62.5839 183 62.9439 183.64C63.3139 184.28 63.4989 185.025 63.4989 185.875C63.4989 186.725 63.3089 187.475 62.9289 188.125C62.5589 188.765 62.0539 189.26 61.4139 189.61C60.7739 189.96 60.0639 190.135 59.2839 190.135ZM59.2839 188.935C59.7739 188.935 60.2339 188.82 60.6639 188.59C61.0939 188.36 61.4389 188.015 61.6989 187.555C61.9689 187.095 62.1039 186.535 62.1039 185.875C62.1039 185.215 61.9739 184.655 61.7139 184.195C61.4539 183.735 61.1139 183.395 60.6939 183.175C60.2739 182.945 59.8189 182.83 59.3289 182.83C58.8289 182.83 58.3689 182.945 57.9489 183.175C57.5389 183.395 57.2089 183.735 56.9589 184.195C56.7089 184.655 56.5839 185.215 56.5839 185.875C56.5839 186.545 56.7039 187.11 56.9439 187.57C57.1939 188.03 57.5239 188.375 57.9339 188.605C58.3439 188.825 58.7939 188.935 59.2839 188.935ZM66.6587 183.115C66.8987 182.645 67.2387 182.28 67.6787 182.02C68.1287 181.76 68.6737 181.63 69.3137 181.63V183.04H68.9537C67.4237 183.04 66.6587 183.87 66.6587 185.53V190H65.2937V181.78H66.6587V183.115ZM70.3794 185.86C70.3794 185.02 70.5494 184.285 70.8894 183.655C71.2294 183.015 71.6944 182.52 72.2844 182.17C72.8844 181.82 73.5544 181.645 74.2944 181.645C74.9344 181.645 75.5294 181.795 76.0794 182.095C76.6294 182.385 77.0494 182.77 77.3394 183.25V178.9H78.7194V190H77.3394V188.455C77.0694 188.945 76.6694 189.35 76.1394 189.67C75.6094 189.98 74.9894 190.135 74.2794 190.135C73.5494 190.135 72.8844 189.955 72.2844 189.595C71.6944 189.235 71.2294 188.73 70.8894 188.08C70.5494 187.43 70.3794 186.69 70.3794 185.86ZM77.3394 185.875C77.3394 185.255 77.2144 184.715 76.9644 184.255C76.7144 183.795 76.3744 183.445 75.9444 183.205C75.5244 182.955 75.0594 182.83 74.5494 182.83C74.0394 182.83 73.5744 182.95 73.1544 183.19C72.7344 183.43 72.3994 183.78 72.1494 184.24C71.8994 184.7 71.7744 185.24 71.7744 185.86C71.7744 186.49 71.8994 187.04 72.1494 187.51C72.3994 187.97 72.7344 188.325 73.1544 188.575C73.5744 188.815 74.0394 188.935 74.5494 188.935C75.0594 188.935 75.5244 188.815 75.9444 188.575C76.3744 188.325 76.7144 187.97 76.9644 187.51C77.2144 187.04 77.3394 186.495 77.3394 185.875ZM88.5261 185.575C88.5261 185.835 88.5111 186.11 88.4811 186.4H81.9111C81.9611 187.21 82.2361 187.845 82.7361 188.305C83.2461 188.755 83.8611 188.98 84.5811 188.98C85.1711 188.98 85.6611 188.845 86.0511 188.575C86.4511 188.295 86.7311 187.925 86.8911 187.465H88.3611C88.1411 188.255 87.7011 188.9 87.0411 189.4C86.3811 189.89 85.5611 190.135 84.5811 190.135C83.8011 190.135 83.1011 189.96 82.4811 189.61C81.8711 189.26 81.3911 188.765 81.0411 188.125C80.6911 187.475 80.5161 186.725 80.5161 185.875C80.5161 185.025 80.6861 184.28 81.0261 183.64C81.3661 183 81.8411 182.51 82.4511 182.17C83.0711 181.82 83.7811 181.645 84.5811 181.645C85.3611 181.645 86.0511 181.815 86.6511 182.155C87.2511 182.495 87.7111 182.965 88.0311 183.565C88.3611 184.155 88.5261 184.825 88.5261 185.575ZM87.1161 185.29C87.1161 184.77 87.0011 184.325 86.7711 183.955C86.5411 183.575 86.2261 183.29 85.8261 183.1C85.4361 182.9 85.0011 182.8 84.5211 182.8C83.8311 182.8 83.2411 183.02 82.7511 183.46C82.2711 183.9 81.9961 184.51 81.9261 185.29H87.1161ZM91.6929 183.115C91.9329 182.645 92.2729 182.28 92.7129 182.02C93.1629 181.76 93.7079 181.63 94.3479 181.63V183.04H93.9879C92.4579 183.04 91.6929 183.87 91.6929 185.53V190H90.3279V181.78H91.6929V183.115ZM102.833 190.135C102.203 190.135 101.638 190.03 101.138 189.82C100.638 189.6 100.243 189.3 99.9526 188.92C99.6626 188.53 99.5026 188.085 99.4726 187.585H100.883C100.923 187.995 101.113 188.33 101.453 188.59C101.803 188.85 102.258 188.98 102.818 188.98C103.338 188.98 103.748 188.865 104.048 188.635C104.348 188.405 104.498 188.115 104.498 187.765C104.498 187.405 104.338 187.14 104.018 186.97C103.698 186.79 103.203 186.615 102.533 186.445C101.923 186.285 101.423 186.125 101.033 185.965C100.653 185.795 100.323 185.55 100.043 185.23C99.7726 184.9 99.6376 184.47 99.6376 183.94C99.6376 183.52 99.7626 183.135 100.013 182.785C100.263 182.435 100.618 182.16 101.078 181.96C101.538 181.75 102.063 181.645 102.653 181.645C103.563 181.645 104.298 181.875 104.858 182.335C105.418 182.795 105.718 183.425 105.758 184.225H104.393C104.363 183.795 104.188 183.45 103.868 183.19C103.558 182.93 103.138 182.8 102.608 182.8C102.118 182.8 101.728 182.905 101.438 183.115C101.148 183.325 101.003 183.6 101.003 183.94C101.003 184.21 101.088 184.435 101.258 184.615C101.438 184.785 101.658 184.925 101.918 185.035C102.188 185.135 102.558 185.25 103.028 185.38C103.618 185.54 104.098 185.7 104.468 185.86C104.838 186.01 105.153 186.24 105.413 186.55C105.683 186.86 105.823 187.265 105.833 187.765C105.833 188.215 105.708 188.62 105.458 188.98C105.208 189.34 104.853 189.625 104.393 189.835C103.943 190.035 103.423 190.135 102.833 190.135ZM115.049 181.78V190H113.684V188.785C113.424 189.205 113.059 189.535 112.589 189.775C112.129 190.005 111.619 190.12 111.059 190.12C110.419 190.12 109.844 189.99 109.334 189.73C108.824 189.46 108.419 189.06 108.119 188.53C107.829 188 107.684 187.355 107.684 186.595V181.78H109.034V186.415C109.034 187.225 109.239 187.85 109.649 188.29C110.059 188.72 110.619 188.935 111.329 188.935C112.059 188.935 112.634 188.71 113.054 188.26C113.474 187.81 113.684 187.155 113.684 186.295V181.78H115.049ZM127.239 181.63C127.879 181.63 128.449 181.765 128.949 182.035C129.449 182.295 129.844 182.69 130.134 183.22C130.424 183.75 130.569 184.395 130.569 185.155V190H129.219V185.35C129.219 184.53 129.014 183.905 128.604 183.475C128.204 183.035 127.659 182.815 126.969 182.815C126.259 182.815 125.694 183.045 125.274 183.505C124.854 183.955 124.644 184.61 124.644 185.47V190H123.294V185.35C123.294 184.53 123.089 183.905 122.679 183.475C122.279 183.035 121.734 182.815 121.044 182.815C120.334 182.815 119.769 183.045 119.349 183.505C118.929 183.955 118.719 184.61 118.719 185.47V190H117.354V181.78H118.719V182.965C118.989 182.535 119.349 182.205 119.799 181.975C120.259 181.745 120.764 181.63 121.314 181.63C122.004 181.63 122.614 181.785 123.144 182.095C123.674 182.405 124.069 182.86 124.329 183.46C124.559 182.88 124.939 182.43 125.469 182.11C125.999 181.79 126.589 181.63 127.239 181.63ZM142.693 181.63C143.333 181.63 143.903 181.765 144.403 182.035C144.903 182.295 145.298 182.69 145.588 183.22C145.878 183.75 146.023 184.395 146.023 185.155V190H144.673V185.35C144.673 184.53 144.468 183.905 144.058 183.475C143.658 183.035 143.113 182.815 142.423 182.815C141.713 182.815 141.148 183.045 140.728 183.505C140.308 183.955 140.098 184.61 140.098 185.47V190H138.748V185.35C138.748 184.53 138.543 183.905 138.133 183.475C137.733 183.035 137.188 182.815 136.498 182.815C135.788 182.815 135.223 183.045 134.803 183.505C134.383 183.955 134.173 184.61 134.173 185.47V190H132.808V181.78H134.173V182.965C134.443 182.535 134.803 182.205 135.253 181.975C135.713 181.745 136.218 181.63 136.768 181.63C137.458 181.63 138.068 181.785 138.598 182.095C139.128 182.405 139.523 182.86 139.783 183.46C140.013 182.88 140.393 182.43 140.923 182.11C141.453 181.79 142.043 181.63 142.693 181.63ZM147.752 185.86C147.752 185.02 147.922 184.285 148.262 183.655C148.602 183.015 149.067 182.52 149.657 182.17C150.257 181.82 150.922 181.645 151.652 181.645C152.372 181.645 152.997 181.8 153.527 182.11C154.057 182.42 154.452 182.81 154.712 183.28V181.78H156.092V190H154.712V188.47C154.442 188.95 154.037 189.35 153.497 189.67C152.967 189.98 152.347 190.135 151.637 190.135C150.907 190.135 150.247 189.955 149.657 189.595C149.067 189.235 148.602 188.73 148.262 188.08C147.922 187.43 147.752 186.69 147.752 185.86ZM154.712 185.875C154.712 185.255 154.587 184.715 154.337 184.255C154.087 183.795 153.747 183.445 153.317 183.205C152.897 182.955 152.432 182.83 151.922 182.83C151.412 182.83 150.947 182.95 150.527 183.19C150.107 183.43 149.772 183.78 149.522 184.24C149.272 184.7 149.147 185.24 149.147 185.86C149.147 186.49 149.272 187.04 149.522 187.51C149.772 187.97 150.107 188.325 150.527 188.575C150.947 188.815 151.412 188.935 151.922 188.935C152.432 188.935 152.897 188.815 153.317 188.575C153.747 188.325 154.087 187.97 154.337 187.51C154.587 187.04 154.712 186.495 154.712 185.875ZM159.764 183.115C160.004 182.645 160.344 182.28 160.784 182.02C161.234 181.76 161.779 181.63 162.419 181.63V183.04H162.059C160.529 183.04 159.764 183.87 159.764 185.53V190H158.399V181.78H159.764V183.115ZM171.075 181.78L166.125 193.87H164.715L166.335 189.91L163.02 181.78H164.535L167.115 188.44L169.665 181.78H171.075ZM172.882 190.09C172.622 190.09 172.402 190 172.222 189.82C172.042 189.64 171.952 189.42 171.952 189.16C171.952 188.9 172.042 188.68 172.222 188.5C172.402 188.32 172.622 188.23 172.882 188.23C173.132 188.23 173.342 188.32 173.512 188.5C173.692 188.68 173.782 188.9 173.782 189.16C173.782 189.42 173.692 189.64 173.512 189.82C173.342 190 173.132 190.09 172.882 190.09ZM172.882 183.67C172.622 183.67 172.402 183.58 172.222 183.4C172.042 183.22 171.952 183 171.952 182.74C171.952 182.48 172.042 182.26 172.222 182.08C172.402 181.9 172.622 181.81 172.882 181.81C173.132 181.81 173.342 181.9 173.512 182.08C173.692 182.26 173.782 182.48 173.782 182.74C173.782 183 173.692 183.22 173.512 183.4C173.342 183.58 173.132 183.67 172.882 183.67Z" fill="#94A9CB"/>
<path d="M55.45 139.53V150H53.35V143.19L50.545 150H48.955L46.135 143.19V150H44.035V139.53H46.42L49.75 147.315L53.08 139.53H55.45ZM56.9862 145.815C56.9862 144.975 57.1512 144.23 57.4812 143.58C57.8212 142.93 58.2762 142.43 58.8462 142.08C59.4262 141.73 60.0712 141.555 60.7812 141.555C61.4012 141.555 61.9412 141.68 62.4012 141.93C62.8712 142.18 63.2462 142.495 63.5262 142.875V141.69H65.6412V150H63.5262V148.785C63.2562 149.175 62.8812 149.5 62.4012 149.76C61.9312 150.01 61.3862 150.135 60.7662 150.135C60.0662 150.135 59.4262 149.955 58.8462 149.595C58.2762 149.235 57.8212 148.73 57.4812 148.08C57.1512 147.42 56.9862 146.665 56.9862 145.815ZM63.5262 145.845C63.5262 145.335 63.4262 144.9 63.2262 144.54C63.0262 144.17 62.7562 143.89 62.4162 143.7C62.0762 143.5 61.7112 143.4 61.3212 143.4C60.9312 143.4 60.5712 143.495 60.2412 143.685C59.9112 143.875 59.6412 144.155 59.4312 144.525C59.2312 144.885 59.1312 145.315 59.1312 145.815C59.1312 146.315 59.2312 146.755 59.4312 147.135C59.6412 147.505 59.9112 147.79 60.2412 147.99C60.5812 148.19 60.9412 148.29 61.3212 148.29C61.7112 148.29 62.0762 148.195 62.4162 148.005C62.7562 147.805 63.0262 147.525 63.2262 147.165C63.4262 146.795 63.5262 146.355 63.5262 145.845ZM69.7922 142.98C70.0622 142.54 70.4122 142.195 70.8422 141.945C71.2822 141.695 71.7822 141.57 72.3422 141.57V143.775H71.7872C71.1272 143.775 70.6272 143.93 70.2872 144.24C69.9572 144.55 69.7922 145.09 69.7922 145.86V150H67.6922V141.69H69.7922V142.98ZM78.6767 150L75.8567 146.46V150H73.7567V138.9H75.8567V145.215L78.6467 141.69H81.3767L77.7167 145.86L81.4067 150H78.6767ZM90.2414 145.665C90.2414 145.965 90.2214 146.235 90.1814 146.475H84.1064C84.1564 147.075 84.3664 147.545 84.7364 147.885C85.1064 148.225 85.5614 148.395 86.1014 148.395C86.8814 148.395 87.4364 148.06 87.7664 147.39H90.0314C89.7914 148.19 89.3314 148.85 88.6514 149.37C87.9714 149.88 87.1364 150.135 86.1464 150.135C85.3464 150.135 84.6264 149.96 83.9864 149.61C83.3564 149.25 82.8614 148.745 82.5014 148.095C82.1514 147.445 81.9764 146.695 81.9764 145.845C81.9764 144.985 82.1514 144.23 82.5014 143.58C82.8514 142.93 83.3414 142.43 83.9714 142.08C84.6014 141.73 85.3264 141.555 86.1464 141.555C86.9364 141.555 87.6414 141.725 88.2614 142.065C88.8914 142.405 89.3764 142.89 89.7164 143.52C90.0664 144.14 90.2414 144.855 90.2414 145.665ZM88.0664 145.065C88.0564 144.525 87.8614 144.095 87.4814 143.775C87.1014 143.445 86.6364 143.28 86.0864 143.28C85.5664 143.28 85.1264 143.44 84.7664 143.76C84.4164 144.07 84.2014 144.505 84.1214 145.065H88.0664ZM94.2193 143.415V147.435C94.2193 147.715 94.2843 147.92 94.4143 148.05C94.5543 148.17 94.7843 148.23 95.1043 148.23H96.0793V150H94.7593C92.9893 150 92.1043 149.14 92.1043 147.42V143.415H91.1143V141.69H92.1043V139.635H94.2193V141.69H96.0793V143.415H94.2193ZM99.6897 142.89C99.9597 142.51 100.33 142.195 100.8 141.945C101.28 141.685 101.825 141.555 102.435 141.555C103.145 141.555 103.785 141.73 104.355 142.08C104.935 142.43 105.39 142.93 105.72 143.58C106.06 144.22 106.23 144.965 106.23 145.815C106.23 146.665 106.06 147.42 105.72 148.08C105.39 148.73 104.935 149.235 104.355 149.595C103.785 149.955 103.145 150.135 102.435 150.135C101.825 150.135 101.285 150.01 100.815 149.76C100.355 149.51 99.9797 149.195 99.6897 148.815V153.96H97.5897V141.69H99.6897V142.89ZM104.085 145.815C104.085 145.315 103.98 144.885 103.77 144.525C103.57 144.155 103.3 143.875 102.96 143.685C102.63 143.495 102.27 143.4 101.88 143.4C101.5 143.4 101.14 143.5 100.8 143.7C100.47 143.89 100.2 144.17 99.9897 144.54C99.7897 144.91 99.6897 145.345 99.6897 145.845C99.6897 146.345 99.7897 146.78 99.9897 147.15C100.2 147.52 100.47 147.805 100.8 148.005C101.14 148.195 101.5 148.29 101.88 148.29C102.27 148.29 102.63 148.19 102.96 147.99C103.3 147.79 103.57 147.505 103.77 147.135C103.98 146.765 104.085 146.325 104.085 145.815ZM109.856 138.9V150H107.756V138.9H109.856ZM111.391 145.815C111.391 144.975 111.556 144.23 111.886 143.58C112.226 142.93 112.681 142.43 113.251 142.08C113.831 141.73 114.476 141.555 115.186 141.555C115.806 141.555 116.346 141.68 116.806 141.93C117.276 142.18 117.651 142.495 117.931 142.875V141.69H120.046V150H117.931V148.785C117.661 149.175 117.286 149.5 116.806 149.76C116.336 150.01 115.791 150.135 115.171 150.135C114.471 150.135 113.831 149.955 113.251 149.595C112.681 149.235 112.226 148.73 111.886 148.08C111.556 147.42 111.391 146.665 111.391 145.815ZM117.931 145.845C117.931 145.335 117.831 144.9 117.631 144.54C117.431 144.17 117.161 143.89 116.821 143.7C116.481 143.5 116.116 143.4 115.726 143.4C115.336 143.4 114.976 143.495 114.646 143.685C114.316 143.875 114.046 144.155 113.836 144.525C113.636 144.885 113.536 145.315 113.536 145.815C113.536 146.315 113.636 146.755 113.836 147.135C114.046 147.505 114.316 147.79 114.646 147.99C114.986 148.19 115.346 148.29 115.726 148.29C116.116 148.29 116.481 148.195 116.821 148.005C117.161 147.805 117.431 147.525 117.631 147.165C117.831 146.795 117.931 146.355 117.931 145.845ZM121.557 145.845C121.557 144.985 121.732 144.235 122.082 143.595C122.432 142.945 122.917 142.445 123.537 142.095C124.157 141.735 124.867 141.555 125.667 141.555C126.697 141.555 127.547 141.815 128.217 142.335C128.897 142.845 129.352 143.565 129.582 144.495H127.317C127.197 144.135 126.992 143.855 126.702 143.655C126.422 143.445 126.072 143.34 125.652 143.34C125.052 143.34 124.577 143.56 124.227 144C123.877 144.43 123.702 145.045 123.702 145.845C123.702 146.635 123.877 147.25 124.227 147.69C124.577 148.12 125.052 148.335 125.652 148.335C126.502 148.335 127.057 147.955 127.317 147.195H129.582C129.352 148.095 128.897 148.81 128.217 149.34C127.537 149.87 126.687 150.135 125.667 150.135C124.867 150.135 124.157 149.96 123.537 149.61C122.917 149.25 122.432 148.75 122.082 148.11C121.732 147.46 121.557 146.705 121.557 145.845ZM138.845 145.665C138.845 145.965 138.825 146.235 138.785 146.475H132.71C132.76 147.075 132.97 147.545 133.34 147.885C133.71 148.225 134.165 148.395 134.705 148.395C135.485 148.395 136.04 148.06 136.37 147.39H138.635C138.395 148.19 137.935 148.85 137.255 149.37C136.575 149.88 135.74 150.135 134.75 150.135C133.95 150.135 133.23 149.96 132.59 149.61C131.96 149.25 131.465 148.745 131.105 148.095C130.755 147.445 130.58 146.695 130.58 145.845C130.58 144.985 130.755 144.23 131.105 143.58C131.455 142.93 131.945 142.43 132.575 142.08C133.205 141.73 133.93 141.555 134.75 141.555C135.54 141.555 136.245 141.725 136.865 142.065C137.495 142.405 137.98 142.89 138.32 143.52C138.67 144.14 138.845 144.855 138.845 145.665ZM136.67 145.065C136.66 144.525 136.465 144.095 136.085 143.775C135.705 143.445 135.24 143.28 134.69 143.28C134.17 143.28 133.73 143.44 133.37 143.76C133.02 144.07 132.805 144.505 132.725 145.065H136.67Z" fill="#ABD700"/>
<path fill-rule="evenodd" clip-rule="evenodd" d="M29.4578 144.491H22.9011C22.539 144.491 22.2454 144.785 22.2454 145.147V151.703C22.2454 152.065 22.539 152.359 22.9011 152.359H29.4578C29.8199 152.359 30.1134 152.065 30.1134 151.703V145.147C30.1134 144.785 29.8199 144.491 29.4578 144.491ZM22.9011 143.18C21.8147 143.18 20.9341 144.06 20.9341 145.147V151.703C20.9341 152.79 21.8147 153.67 22.9011 153.67H29.4578C30.5441 153.67 31.4248 152.79 31.4248 151.703V145.147C31.4248 144.06 30.5441 143.18 29.4578 143.18H22.9011Z" fill="#ABD700"/>
<path fill-rule="evenodd" clip-rule="evenodd" d="M34.0476 139.901H27.4909C27.1288 139.901 26.8353 140.195 26.8353 140.557V147.114C26.8353 147.476 27.1288 147.769 27.4909 147.769H34.0476C34.4097 147.769 34.7033 147.476 34.7033 147.114V140.557C34.7033 140.195 34.4097 139.901 34.0476 139.901ZM27.4909 138.59C26.4046 138.59 25.5239 139.471 25.5239 140.557V147.114C25.5239 148.2 26.4046 149.081 27.4909 149.081H34.0476C35.134 149.081 36.0146 148.2 36.0146 147.114V140.557C36.0146 139.471 35.134 138.59 34.0476 138.59H27.4909Z" fill="#ABD700"/>
<path fill-rule="evenodd" clip-rule="evenodd" d="M22.2453 135.311H18.967C18.6049 135.311 18.3113 135.605 18.3113 135.967V139.245C18.3113 139.607 18.6049 139.901 18.967 139.901H22.2453C22.6075 139.901 22.901 139.607 22.901 139.245V135.967C22.901 135.605 22.6075 135.311 22.2453 135.311ZM18.967 134C17.8807 134 17 134.881 17 135.967V139.245C17 140.332 17.8807 141.212 18.967 141.212H22.2453C23.3317 141.212 24.2124 140.332 24.2124 139.245V135.967C24.2124 134.881 23.3317 134 22.2453 134H18.967Z" fill="#ABD700"/>
<rect x="17.5" y="205.5" width="117" height="117" rx="4.5" stroke="#94A9CB"/>
<g clip-path="url(#clip0_2560_32015)">
<path fill-rule="evenodd" clip-rule="evenodd" d="M68.5781 246.656C66.8954 246.656 65.5312 248.02 65.5312 249.703C65.5312 251.386 66.8954 252.75 68.5781 252.75H74.2057C73.6379 250.757 72.8843 249.335 72.0651 248.379C71.0169 247.156 69.8361 246.656 68.5781 246.656ZM61.875 249.703C61.875 250.8 62.1386 251.836 62.6059 252.75H61.2656C58.9098 252.75 57 254.66 57 257.016V261.891C57 263.592 57.9964 265.061 59.4375 265.746V277.734C59.4375 280.09 61.3473 282 63.7031 282H89.2969C91.6527 282 93.5625 280.09 93.5625 277.734V265.746C95.0036 265.061 96 263.592 96 261.891V257.016C96 254.66 94.0902 252.75 91.7344 252.75H90.394C90.8615 251.836 91.125 250.8 91.125 249.703C91.125 246.001 88.124 243 84.4219 243C82.0236 243 79.8528 244.023 78.1589 246C77.5353 246.727 76.982 247.576 76.5 248.541C76.018 247.576 75.4647 246.727 74.8411 246C73.1472 244.023 70.9764 243 68.5781 243C64.8761 243 61.875 246.001 61.875 249.703ZM78.7943 252.75H84.4219C86.1047 252.75 87.4688 251.386 87.4688 249.703C87.4688 248.02 86.1047 246.656 84.4219 246.656C83.1639 246.656 81.9832 247.156 80.9349 248.379C80.1157 249.335 79.3621 250.757 78.7943 252.75ZM61.2656 256.406C60.9291 256.406 60.6562 256.679 60.6562 257.016V261.891C60.6562 262.227 60.9291 262.5 61.2656 262.5H74.6719V256.406H61.2656ZM78.3281 256.406V262.5H91.7344C92.071 262.5 92.3438 262.227 92.3438 261.891V257.016C92.3438 256.679 92.071 256.406 91.7344 256.406H78.3281ZM78.3281 266.156H89.9062V277.734C89.9062 278.071 89.6335 278.344 89.2969 278.344H78.3281V266.156ZM74.6719 266.156V278.344H63.7031C63.3666 278.344 63.0938 278.071 63.0938 277.734V266.156H74.6719Z" fill="#EDF0F5"/>
</g>
<path d="M451.702 511.546L451.156 514.136H453.158V515.004H450.974L450.33 518H449.392L450.036 515.004H446.928L446.284 518H445.346L445.99 515.004H443.764V514.136H446.172L446.718 511.546H444.534V510.678H446.914L447.558 507.64H448.496L447.852 510.678H450.96L451.604 507.64H452.542L451.898 510.678H453.928V511.546H451.702ZM450.764 511.546H447.656L447.11 514.136H450.218L450.764 511.546ZM461.426 515.676H456.974L456.12 518H455.084L458.654 508.34H459.76L463.316 518H462.28L461.426 515.676ZM461.132 514.864L459.2 509.572L457.268 514.864H461.132ZM469.467 512.946C470.017 513.049 470.484 513.329 470.867 513.786C471.249 514.243 471.441 514.775 471.441 515.382C471.441 515.877 471.315 516.325 471.063 516.726C470.82 517.118 470.461 517.431 469.985 517.664C469.509 517.888 468.939 518 468.277 518H464.889V508.214H468.179C469.168 508.214 469.919 508.443 470.433 508.9C470.955 509.357 471.217 509.95 471.217 510.678C471.217 511.285 471.053 511.779 470.727 512.162C470.4 512.535 469.98 512.797 469.467 512.946ZM465.869 512.54H468.151C468.813 512.54 469.322 512.386 469.677 512.078C470.041 511.761 470.223 511.327 470.223 510.776C470.223 510.235 470.041 509.81 469.677 509.502C469.322 509.194 468.799 509.04 468.109 509.04H465.869V512.54ZM468.207 517.174C468.916 517.174 469.467 517.006 469.859 516.67C470.26 516.334 470.461 515.872 470.461 515.284C470.461 514.696 470.251 514.229 469.831 513.884C469.42 513.529 468.865 513.352 468.165 513.352H465.869V517.174H468.207ZM476.14 508.214C477.223 508.214 478.151 508.41 478.926 508.802C479.701 509.194 480.293 509.759 480.704 510.496C481.115 511.233 481.32 512.111 481.32 513.128C481.32 514.136 481.115 515.009 480.704 515.746C480.293 516.474 479.701 517.034 478.926 517.426C478.151 517.809 477.223 518 476.14 518H473.242V508.214H476.14ZM476.14 517.188C477.503 517.188 478.539 516.833 479.248 516.124C479.967 515.405 480.326 514.407 480.326 513.128C480.326 511.84 479.967 510.837 479.248 510.118C478.539 509.39 477.503 509.026 476.14 509.026H474.222V517.188H476.14ZM488.923 508.732L485.017 518H484.023L487.971 508.816H482.371V507.976H488.923V508.732ZM490.382 512.89C490.382 511.285 490.629 510.039 491.124 509.152C491.618 508.265 492.505 507.822 493.784 507.822C495.062 507.822 495.949 508.265 496.444 509.152C496.938 510.039 497.186 511.285 497.186 512.89C497.186 514.523 496.938 515.788 496.444 516.684C495.949 517.58 495.062 518.028 493.784 518.028C492.496 518.028 491.604 517.58 491.11 516.684C490.624 515.788 490.382 514.523 490.382 512.89ZM496.22 512.89C496.22 512.022 496.159 511.289 496.038 510.692C495.916 510.095 495.678 509.614 495.324 509.25C494.969 508.886 494.456 508.704 493.784 508.704C493.112 508.704 492.598 508.886 492.244 509.25C491.889 509.614 491.651 510.095 491.53 510.692C491.408 511.289 491.348 512.022 491.348 512.89C491.348 513.786 491.408 514.537 491.53 515.144C491.651 515.741 491.889 516.222 492.244 516.586C492.598 516.95 493.112 517.132 493.784 517.132C494.456 517.132 494.969 516.95 495.324 516.586C495.678 516.222 495.916 515.741 496.038 515.144C496.159 514.537 496.22 513.786 496.22 512.89ZM499.009 512.89C499.009 511.285 499.256 510.039 499.751 509.152C500.245 508.265 501.132 507.822 502.411 507.822C503.689 507.822 504.576 508.265 505.071 509.152C505.565 510.039 505.813 511.285 505.813 512.89C505.813 514.523 505.565 515.788 505.071 516.684C504.576 517.58 503.689 518.028 502.411 518.028C501.123 518.028 500.231 517.58 499.737 516.684C499.251 515.788 499.009 514.523 499.009 512.89ZM504.847 512.89C504.847 512.022 504.786 511.289 504.665 510.692C504.543 510.095 504.305 509.614 503.951 509.25C503.596 508.886 503.083 508.704 502.411 508.704C501.739 508.704 501.225 508.886 500.871 509.25C500.516 509.614 500.278 510.095 500.157 510.692C500.035 511.289 499.975 512.022 499.975 512.89C499.975 513.786 500.035 514.537 500.157 515.144C500.278 515.741 500.516 516.222 500.871 516.586C501.225 516.95 501.739 517.132 502.411 517.132C503.083 517.132 503.596 516.95 503.951 516.586C504.305 516.222 504.543 515.741 504.665 515.144C504.786 514.537 504.847 513.786 504.847 512.89Z" fill="#687B97"/>
<rect x="488" y="476" width="19" height="19" rx="4" fill="#ABD700"/>
<rect x="459" y="476" width="19" height="19" rx="4" fill="#C1EE13"/>
<rect x="430" y="476" width="19" height="19" rx="4" fill="#C6EF25"/>
<rect x="401" y="476" width="19" height="19" rx="4" fill="#D5F753"/>
<rect x="372" y="476" width="19" height="19" rx="4" fill="#E2FE77"/>
<rect x="517.5" y="476.5" width="43" height="43" rx="3.5" stroke="#687B97"/>
<path d="M526.26 498.905C526.26 497.943 526.47 497.085 526.89 496.329C527.31 495.563 527.884 494.971 528.612 494.551C529.34 494.121 530.152 493.907 531.048 493.907C532.14 493.907 533.073 494.168 533.848 494.691C534.632 495.204 535.201 495.932 535.556 496.875H534.408C534.128 496.212 533.699 495.694 533.12 495.321C532.551 494.947 531.86 494.761 531.048 494.761C530.329 494.761 529.681 494.929 529.102 495.265C528.533 495.601 528.085 496.086 527.758 496.721C527.431 497.346 527.268 498.074 527.268 498.905C527.268 499.735 527.431 500.463 527.758 501.089C528.085 501.714 528.533 502.195 529.102 502.531C529.681 502.867 530.329 503.035 531.048 503.035C531.86 503.035 532.551 502.853 533.12 502.489C533.699 502.115 534.128 501.602 534.408 500.949H535.556C535.201 501.882 534.632 502.605 533.848 503.119C533.064 503.632 532.131 503.889 531.048 503.889C530.152 503.889 529.34 503.679 528.612 503.259C527.884 502.829 527.31 502.237 526.89 501.481C526.47 500.725 526.26 499.866 526.26 498.905ZM540.477 503.903C539.833 503.903 539.263 503.791 538.769 503.567C538.283 503.343 537.901 503.03 537.621 502.629C537.341 502.227 537.191 501.779 537.173 501.285H538.209C538.255 501.761 538.465 502.181 538.839 502.545C539.212 502.899 539.758 503.077 540.477 503.077C541.139 503.077 541.662 502.909 542.045 502.573C542.437 502.227 542.633 501.793 542.633 501.271C542.633 500.851 542.525 500.515 542.311 500.263C542.096 500.001 541.83 499.81 541.513 499.689C541.195 499.558 540.757 499.418 540.197 499.269C539.543 499.091 539.025 498.919 538.643 498.751C538.26 498.583 537.933 498.321 537.663 497.967C537.392 497.612 537.257 497.131 537.257 496.525C537.257 496.021 537.387 495.573 537.649 495.181C537.91 494.779 538.279 494.467 538.755 494.243C539.231 494.019 539.777 493.907 540.393 493.907C541.298 493.907 542.026 494.131 542.577 494.579C543.137 495.017 543.459 495.587 543.543 496.287H542.479C542.413 495.885 542.194 495.531 541.821 495.223C541.447 494.905 540.943 494.747 540.309 494.747C539.721 494.747 539.231 494.905 538.839 495.223C538.447 495.531 538.251 495.955 538.251 496.497C538.251 496.907 538.358 497.239 538.573 497.491C538.787 497.743 539.053 497.934 539.371 498.065C539.697 498.195 540.136 498.335 540.687 498.485C541.321 498.662 541.835 498.839 542.227 499.017C542.619 499.185 542.95 499.446 543.221 499.801C543.491 500.155 543.627 500.631 543.627 501.229C543.627 501.686 543.505 502.12 543.263 502.531C543.02 502.941 542.661 503.273 542.185 503.525C541.709 503.777 541.139 503.903 540.477 503.903ZM548.488 503.903C547.844 503.903 547.275 503.791 546.78 503.567C546.295 503.343 545.912 503.03 545.632 502.629C545.352 502.227 545.203 501.779 545.184 501.285H546.22C546.267 501.761 546.477 502.181 546.85 502.545C547.224 502.899 547.77 503.077 548.488 503.077C549.151 503.077 549.674 502.909 550.056 502.573C550.448 502.227 550.644 501.793 550.644 501.271C550.644 500.851 550.537 500.515 550.322 500.263C550.108 500.001 549.842 499.81 549.524 499.689C549.207 499.558 548.768 499.418 548.208 499.269C547.555 499.091 547.037 498.919 546.654 498.751C546.272 498.583 545.945 498.321 545.674 497.967C545.404 497.612 545.268 497.131 545.268 496.525C545.268 496.021 545.399 495.573 545.66 495.181C545.922 494.779 546.29 494.467 546.766 494.243C547.242 494.019 547.788 493.907 548.404 493.907C549.31 493.907 550.038 494.131 550.588 494.579C551.148 495.017 551.47 495.587 551.554 496.287H550.49C550.425 495.885 550.206 495.531 549.832 495.223C549.459 494.905 548.955 494.747 548.32 494.747C547.732 494.747 547.242 494.905 546.85 495.223C546.458 495.531 546.262 495.955 546.262 496.497C546.262 496.907 546.37 497.239 546.584 497.491C546.799 497.743 547.065 497.934 547.382 498.065C547.709 498.195 548.148 498.335 548.698 498.485C549.333 498.662 549.846 498.839 550.238 499.017C550.63 499.185 550.962 499.446 551.232 499.801C551.503 500.155 551.638 500.631 551.638 501.229C551.638 501.686 551.517 502.12 551.274 502.531C551.032 502.941 550.672 503.273 550.196 503.525C549.72 503.777 549.151 503.903 548.488 503.903Z" fill="#687B97"/>
<defs>
<clipPath id="clip0_2560_32015">
<rect width="39" height="39" fill="white" transform="translate(57 243)"/>
</clipPath>
</defs>
</svg>
